<svg width="90" height="90" viewBox="0 0 90 90" fill="none" xmlns="http://www.w3.org/2000/svg">
<g clip-path="url(#clip0_103_901)">
<path d="M64.8553 14.7877H19.6615V9.08307C19.6615 5.75999 22.3753 3.04614 25.6984 3.04614H58.763C62.0861 3.04614 64.8 5.75999 64.8 9.08307V14.7877H64.8553ZM22.2092 12.1846H62.2523V9.08307C62.2523 7.1446 60.7015 5.59383 58.763 5.59383H25.6984C23.76 5.59383 22.2092 7.1446 22.2092 9.08307V12.1846Z" fill="#156EFF"/>
<path d="M67.1262 28.5231H17.8339C16.56 28.5231 15.3416 27.8585 14.6216 26.8062C13.9016 25.7539 13.7908 24.3692 14.2893 23.1508L14.3447 23.04L20.16 12.1846H64.2462L70.6154 23.04C71.1693 24.2585 71.0585 25.6431 70.3385 26.7508C69.6739 27.8585 68.4554 28.5231 67.1262 28.5231ZM16.56 24.2031C16.3939 24.5908 16.4493 25.0339 16.7262 25.3662C16.9477 25.7539 17.3908 25.9754 17.8339 25.9754H67.1262C67.5693 25.9754 67.957 25.7539 68.2339 25.3662C68.4554 24.9785 68.5108 24.5908 68.3447 24.1477L62.8062 14.7323H21.7108L16.56 24.2031Z" fill="#156EFF"/>
<path d="M22.2647 28.4677C22.0985 28.4677 21.9324 28.4123 21.7662 28.3569C21.1016 28.08 20.8247 27.3046 21.1016 26.64L27.0831 12.96C27.3601 12.2954 28.1354 12.0185 28.8001 12.2954C29.4647 12.5723 29.7416 13.3477 29.4647 14.0123L23.4831 27.6923C23.2616 28.1354 22.7631 28.4677 22.2647 28.4677Z" fill="#156EFF"/>
<path d="M62.1969 28.4677C61.6984 28.4677 61.2554 28.1908 61.0338 27.6923L55.0523 14.0123C54.7754 13.3477 55.0523 12.6277 55.7169 12.2954C56.3815 12.0185 57.1015 12.2954 57.4338 12.96L63.4154 26.64C63.6923 27.3046 63.4154 28.0246 62.7507 28.3569C62.5292 28.4123 62.363 28.4677 62.1969 28.4677Z" fill="#156EFF"/>
<path d="M32.2339 28.4677C32.1231 28.4677 32.0123 28.4677 31.9016 28.4123C31.237 28.1907 30.8493 27.5261 31.0154 26.8061L34.9477 13.1261C35.1693 12.4615 35.8339 12.0738 36.5539 12.24C37.2185 12.4615 37.6062 13.1261 37.44 13.8461L33.5077 27.5261C33.2862 28.08 32.7877 28.4677 32.2339 28.4677Z" fill="#156EFF"/>
<path d="M52.6708 28.5231C52.117 28.5231 51.6185 28.1354 51.4523 27.5815L47.52 13.9015C47.2985 13.2369 47.7416 12.5169 48.4062 12.2954C49.0708 12.0738 49.7908 12.5169 50.0123 13.1815L53.9446 26.8615C54.1662 27.5261 53.7231 28.2461 53.0585 28.4677C52.9477 28.5231 52.7816 28.5231 52.6708 28.5231Z" fill="#156EFF"/>
<path d="M42.4246 28.4677C41.7046 28.4677 41.1508 27.9139 41.1508 27.1939V13.4585C41.1508 12.7385 41.7046 12.1846 42.4246 12.1846C43.1446 12.1846 43.6984 12.7385 43.6984 13.4585V27.1385C43.6984 27.8585 43.1446 28.4677 42.4246 28.4677Z" fill="#156EFF"/>
<path d="M58.32 87.4523H26.5846C23.2615 87.4523 20.603 84.8492 20.603 81.6369V25.9754H64.3569V43.6431C64.3569 44.3631 63.803 44.9169 63.083 44.9169C62.363 44.9169 61.8092 44.3631 61.8092 43.6431V28.5231H23.1507V81.6369C23.1507 83.4092 24.7015 84.8492 26.5846 84.8492H58.32C60.203 84.8492 61.7538 83.4092 61.7538 81.6369V59.4277C61.7538 58.7077 62.3076 58.1539 63.0276 58.1539C63.7476 58.1539 64.3015 58.7077 64.3015 59.4277V81.6369C64.3569 84.8492 61.643 87.4523 58.32 87.4523Z" fill="#156EFF"/>
<path d="M62.9723 74.6585H21.9877C21.2677 74.6585 20.7139 74.1046 20.7139 73.3846C20.7139 72.6646 21.2677 72.1108 21.9877 72.1108H62.9723C63.6923 72.1108 64.2462 72.6646 64.2462 73.3846C64.2462 74.1046 63.6923 74.6585 62.9723 74.6585Z" fill="#156EFF"/>
<path d="M51.7293 47.3539H32.7324C31.1262 47.3539 29.5754 46.7446 28.4677 45.5816C27.3047 44.4185 26.6954 42.9231 26.6954 41.317C26.6954 37.9939 29.4093 35.28 32.7324 35.28H51.7293C53.3354 35.28 54.8862 35.8893 55.9939 37.0523C57.157 38.2154 57.7662 39.7108 57.7662 41.317C57.7662 41.4277 57.7662 41.5939 57.7108 41.76C57.5447 42.48 56.88 42.9231 56.2154 42.7569C55.5508 42.6462 55.1077 41.9816 55.2185 41.317C55.2185 40.32 54.8308 39.4893 54.2216 38.8246C53.557 38.16 52.6708 37.8277 51.7293 37.8277H32.7324C30.7939 37.8277 29.2431 39.3785 29.2431 41.317C29.2431 42.2585 29.6308 43.1446 30.2954 43.7539C30.96 44.4185 31.8462 44.8062 32.7877 44.8062H51.7293C52.3385 44.7508 52.9477 45.1385 53.1139 45.8031C53.28 46.4677 52.837 47.1877 52.1724 47.3539C51.9508 47.3539 51.7847 47.3539 51.7293 47.3539Z" fill="#156EFF"/>
<path d="M55.1631 56.2154H30.0739C29.3539 56.2154 28.8 55.6616 28.8 54.9416C28.8 54.2216 29.3539 53.6677 30.0739 53.6677H55.1631C55.8831 53.6677 56.437 54.2216 56.437 54.9416C56.437 55.6616 55.8831 56.2154 55.1631 56.2154Z" fill="#156EFF"/>
<path d="M47.5199 63.5261H36.9969C36.2769 63.5261 35.723 62.9723 35.723 62.2523C35.723 61.5323 36.2769 60.9785 36.9969 60.9785H47.5199C48.2399 60.9785 48.7938 61.5323 48.7938 62.2523C48.7938 62.9723 48.2399 63.5261 47.5199 63.5261Z" fill="#156EFF"/>
<path d="M42.4799 81.5815C43.6729 81.5815 44.6399 80.6145 44.6399 79.4215C44.6399 78.2286 43.6729 77.2615 42.4799 77.2615C41.287 77.2615 40.3199 78.2286 40.3199 79.4215C40.3199 80.6145 41.287 81.5815 42.4799 81.5815Z" fill="#156EFF"/>
<path d="M73.883 70.0062C72.9415 70.0062 71.9446 69.6185 71.2246 68.8985L63.5261 61.2L61.7538 65.2985C61.3107 66.2954 60.3692 66.8492 59.3169 66.7939C58.2646 66.7385 57.3784 66.0739 57.0461 65.0769L50.2892 43.8646C49.9569 42.7569 50.2338 41.5385 51.0646 40.7077C51.8953 39.8769 53.1138 39.6 54.2215 39.9323L75.4892 46.7446C76.4861 47.0769 77.2061 47.9631 77.2061 49.0154C77.2615 50.0677 76.6523 51.0092 75.7107 51.4523L71.6123 53.2246L79.3107 60.9231C80.7507 62.3631 80.7507 64.7446 79.3107 66.24L76.5969 68.9539C75.7661 69.6739 74.8246 70.0062 73.883 70.0062ZM63.3046 58.0985C63.803 58.0985 64.2461 58.2646 64.5784 58.5969L73.0523 67.0708C73.4953 67.5139 74.2707 67.5139 74.7138 67.0708L77.4277 64.3569C77.8707 63.9139 77.8707 63.1385 77.4277 62.6954L68.9538 54.2215C68.5107 53.7785 68.3446 53.2246 68.4553 52.6154C68.5661 52.0062 68.9538 51.5631 69.5076 51.2862L74.4923 49.1262L53.3907 42.3692C53.1138 42.2585 52.8923 42.4246 52.8369 42.48C52.7261 42.5908 52.6153 42.7569 52.7261 43.0339L59.483 64.1354L61.643 59.1508C61.8646 58.5969 62.363 58.2092 62.9723 58.0985C63.0276 58.0985 63.1938 58.0985 63.3046 58.0985Z" fill="#156EFF"/>
</g>
<defs>
<clipPath id="clip0_103_901">
<rect width="90" height="90" fill="white"/>
</clipPath>
</defs>
</svg>
