<svg width="90" height="90" viewBox="0 0 90 90" fill="none" xmlns="http://www.w3.org/2000/svg">
<path d="M54.6488 12.8745C54.0786 17.6891 50.0158 21.4978 45.0264 21.4978C40.1083 21.4978 35.9743 17.761 35.4041 12.8745H34.62C33.9073 12.8745 33.1945 12.8745 32.553 12.8745C33.1945 19.2701 38.5402 24.3003 45.0264 24.3003C51.5126 24.3003 56.9297 19.2701 57.4999 12.8745C56.8584 12.8745 56.1457 12.8745 55.4329 12.8745H54.6488Z" fill="#156EFF"/>
<path d="M81.0211 26.9592C79.0966 28.6838 73.7509 33.6422 72.3253 34.9357C72.8955 35.5825 73.537 36.3729 74.1072 37.1634C75.3189 36.0855 80.736 31.1271 82.803 29.1869C82.2328 28.4682 81.6626 27.6778 81.0211 26.9592Z" fill="#156EFF"/>
<path d="M9.03143 26.9592C8.38994 27.7496 7.81973 28.4682 7.24951 29.1869L15.9453 37.1634C16.5868 36.3729 17.2283 35.5825 17.7272 34.9357L9.03143 26.9592Z" fill="#156EFF"/>
<path d="M64.9839 79.7769H25.1402C24.3561 79.7769 23.7146 79.1302 23.7146 78.3397V36.8041C23.7146 35.4388 23.2157 34.5764 22.4316 34.5764C22.0753 34.5764 21.7901 34.7202 21.505 34.9357C20.9348 35.4388 17.4422 39.7504 14.3773 43.7028C14.1635 43.9902 13.7359 44.2058 13.3795 44.2777C12.9518 44.2777 12.5954 44.2058 12.3103 43.9184L1.47622 34.0734C0.906 33.5704 0.834714 32.708 1.33365 32.1332C1.69004 31.6301 10.7422 19.7731 15.6603 15.2458C21.0061 10.3593 22.2178 10 34.62 10H55.4329C67.835 10 69.0467 10.3593 74.3925 15.2458C79.3819 19.7731 88.3628 31.6301 88.7192 32.1332C89.1469 32.708 89.0756 33.5704 88.5766 34.0734L77.7425 43.9184C77.4574 44.2058 77.0298 44.3495 76.6734 44.2777C76.2457 44.2777 75.8893 44.0621 75.6755 43.7028C72.6106 39.7504 69.118 35.4388 68.5478 34.9357C68.2627 34.7202 67.9063 34.5764 67.6212 34.5764C66.8372 34.5764 66.3382 35.4388 66.3382 36.8041V78.3397C66.4095 79.1302 65.768 79.7769 64.9839 79.7769ZM26.5657 76.9025H63.5584V36.8041C63.5584 33.2829 65.6255 31.702 67.6925 31.702C68.7617 31.702 69.7595 32.1332 70.5436 32.8518C71.3276 33.5704 75.1053 38.3132 77.0298 40.7565L85.7256 32.8518C83.3734 29.8336 76.4595 20.9947 72.5393 17.4017C68.0489 13.2337 67.6925 12.9463 55.5041 12.9463H34.62C22.5029 12.9463 22.0752 13.3056 17.5848 17.4017C13.6646 20.9947 6.75069 29.8336 4.39855 32.8518L13.0943 40.7565C15.0188 38.3132 18.7965 33.5704 19.5806 32.8518C20.3646 32.1332 21.3625 31.702 22.4316 31.702C24.4987 31.702 26.5657 33.2829 26.5657 36.8041V76.9025Z" fill="#156EFF"/>
<path d="M63.5584 68.7823H26.5657V71.6567H63.5584V68.7823Z" fill="#156EFF"/>
</svg>
