<svg width="54" height="43" viewBox="0 0 54 43" fill="none" xmlns="http://www.w3.org/2000/svg">
<path d="M54 15.2822C54 5.54356 47.8868 3.27455e-06 41.0458 2.65893e-06C34.7871 2.09571e-06 29.5472 5.39373 29.5472 11.8362C29.5472 18.2787 33.9137 22.6237 39.4447 22.6237C40.6092 22.6237 41.9191 22.4739 42.3558 22.1742C41.0458 27.5679 35.6604 33.8606 31.0027 36.4077L39.0081 43C48.0323 36.5575 54 26.5192 54 15.2822ZM24.3073 15.2822C24.3073 5.54355 18.3396 6.15615e-07 11.4987 0C5.09434 -5.7632e-07 5.47158e-07 5.39373 0 11.8362C-5.47158e-07 18.2787 4.36658 22.6237 9.75202 22.6237C10.9164 22.6237 12.2264 22.4739 12.6631 22.1742C11.4987 27.5679 5.96765 33.8606 1.30997 36.4077L9.46091 43C18.4852 36.5575 24.3073 26.5192 24.3073 15.2822Z" fill="#B8D7F2"/>
</svg>
