<svg width="90" height="90" viewBox="0 0 90 90" fill="none" xmlns="http://www.w3.org/2000/svg">
<g clip-path="url(#clip0_103_848)">
<path d="M44.5846 86.3446C44.4184 86.3446 44.1969 86.2892 44.0307 86.2338C29.963 79.3108 18.9415 67.5692 12.9599 53.1692C9.08302 43.8646 7.64302 33.2861 8.69533 22.5415L9.35994 16.0615C9.41533 15.3415 10.0246 14.8431 10.7446 14.8984C11.0215 14.8984 37.4399 16.8923 42.3692 4.81844C42.7569 3.93229 43.5876 3.32306 44.6399 3.32306C45.6369 3.32306 46.5784 3.87691 46.9661 4.76306C52.1722 16.9477 78.3138 14.8431 78.5907 14.8431C79.3107 14.7877 79.9199 15.2861 79.9753 16.0061L80.6399 22.5969C81.6369 32.5108 80.4184 42.3692 77.1507 51.0646C71.3907 66.4615 60.0369 78.9231 45.2492 86.1785C44.9722 86.2892 44.8061 86.3446 44.5846 86.3446ZM11.7969 17.5569L11.2984 22.8184C10.2461 33.12 11.6861 43.3108 15.3969 52.2277C21.0461 65.9077 31.4584 77.04 44.6399 83.6861C58.5969 76.7077 69.2307 64.8554 74.7138 50.2338C77.8153 41.9261 78.9784 32.4554 78.0369 22.9292L77.483 17.6123C71.8892 17.8892 50.123 18.2769 44.6399 6.14767C39.4338 18.1108 17.3907 17.8338 11.7969 17.5569Z" fill="#156EFF" stroke="#156EFF" stroke-width="0.5"/>
<path d="M43.9199 62.9169C32.9538 62.9169 24.0369 54 24.0369 43.0338C24.0369 32.0677 32.9538 23.1508 43.9199 23.1508C54.8861 23.1508 63.803 32.0677 63.803 43.0338C63.803 54 54.8861 62.9169 43.9199 62.9169ZM43.9199 25.6985C34.3938 25.6985 26.5846 33.4523 26.5846 43.0338C26.5846 52.6154 34.3384 60.3692 43.9199 60.3692C53.5015 60.3692 61.2553 52.6154 61.2553 43.0338C61.2553 33.4523 53.5015 25.6985 43.9199 25.6985Z" fill="#156EFF" stroke="#156EFF" stroke-width="0.5"/>
<path d="M40.9846 51.7292C40.32 51.7292 39.6554 51.4523 39.1569 50.9539L32.6216 44.7508C32.1231 44.2523 32.1231 43.4215 32.5662 42.9231C33.0646 42.4246 33.8954 42.4246 34.3939 42.8677L40.8739 49.1262H40.9292C40.9846 49.1262 40.9846 49.1262 40.9846 49.0708L52.56 34.6708C53.0031 34.1169 53.8339 34.0062 54.3877 34.4492C54.9415 34.8923 55.0523 35.7231 54.6092 36.2769L43.0339 50.6769C42.5908 51.2862 41.8708 51.6185 41.1508 51.6739C41.0954 51.7292 41.04 51.7292 40.9846 51.7292Z" fill="#156EFF" stroke="#156EFF" stroke-width="0.5"/>
</g>
<defs>
<clipPath id="clip0_103_848">
<rect width="90" height="90" fill="white"/>
</clipPath>
</defs>
</svg>
