<svg width="90" height="90" viewBox="0 0 90 90" fill="none" xmlns="http://www.w3.org/2000/svg">
<path d="M64.9669 53.6845C62.1982 53.6845 59.9832 51.4759 59.9832 48.7151C59.9832 45.9542 62.1982 43.7456 64.9669 43.7456C67.7356 43.7456 69.9506 45.9542 69.9506 48.7151C69.9506 51.4759 67.6664 53.6845 64.9669 53.6845ZM64.9669 46.5064C63.721 46.5064 62.7519 47.4727 62.7519 48.7151C62.7519 49.9574 63.721 50.9237 64.9669 50.9237C66.2128 50.9237 67.1819 49.9574 67.1819 48.7151C67.1819 47.4727 66.1436 46.5064 64.9669 46.5064Z" fill="#156EFF"/>
<path d="M24.6819 69.0761H20.0443C19.2829 69.0761 18.6599 68.4549 18.6599 67.6957C18.6599 66.9364 19.2829 66.3152 20.0443 66.3152H24.6819C25.4433 66.3152 26.0663 66.9364 26.0663 67.6957C26.0663 68.4549 25.4433 69.0761 24.6819 69.0761Z" fill="#156EFF"/>
<path d="M38.5254 69.0761H33.8878C33.1264 69.0761 32.5034 68.4549 32.5034 67.6957C32.5034 66.9364 33.1264 66.3152 33.8878 66.3152H38.5254C39.2868 66.3152 39.9098 66.9364 39.9098 67.6957C39.9098 68.4549 39.2868 69.0761 38.5254 69.0761Z" fill="#156EFF"/>
<path d="M52.3692 69.0761H47.7315C46.9701 69.0761 46.3472 68.4549 46.3472 67.6957C46.3472 66.9364 46.9701 66.3152 47.7315 66.3152H52.3692C53.1306 66.3152 53.7536 66.9364 53.7536 67.6957C53.7536 68.4549 53.1306 69.0761 52.3692 69.0761Z" fill="#156EFF"/>
<path d="M66.2129 69.0761H61.5753C60.8139 69.0761 60.1909 68.4549 60.1909 67.6957C60.1909 66.9364 60.8139 66.3152 61.5753 66.3152H66.2129C66.9743 66.3152 67.5973 66.9364 67.5973 67.6957C67.5973 68.4549 66.9743 69.0761 66.2129 69.0761Z" fill="#156EFF"/>
<path d="M24.6819 31.1149H20.0443C19.2829 31.1149 18.6599 30.4938 18.6599 29.7345C18.6599 28.9753 19.2829 28.3541 20.0443 28.3541H24.6819C25.4433 28.3541 26.0663 28.9753 26.0663 29.7345C26.0663 30.4938 25.4433 31.1149 24.6819 31.1149Z" fill="#156EFF"/>
<path d="M38.5254 31.1149H33.8878C33.1264 31.1149 32.5034 30.4938 32.5034 29.7345C32.5034 28.9753 33.1264 28.3541 33.8878 28.3541H38.5254C39.2868 28.3541 39.9098 28.9753 39.9098 29.7345C39.9098 30.4938 39.2868 31.1149 38.5254 31.1149Z" fill="#156EFF"/>
<path d="M52.3692 31.1149H47.7315C46.9701 31.1149 46.3472 30.4938 46.3472 29.7345C46.3472 28.9753 46.9701 28.3541 47.7315 28.3541H52.3692C53.1306 28.3541 53.7536 28.9753 53.7536 29.7345C53.7536 30.4938 53.1306 31.1149 52.3692 31.1149Z" fill="#156EFF"/>
<path d="M66.2129 31.1149H61.5753C60.8139 31.1149 60.1909 30.4938 60.1909 29.7345C60.1909 28.9753 60.8139 28.3541 61.5753 28.3541H66.2129C66.9743 28.3541 67.5973 28.9753 67.5973 29.7345C67.5973 30.4938 66.9743 31.1149 66.2129 31.1149Z" fill="#156EFF"/>
<path d="M80.6105 58.2399H58.3221C56.1071 58.2399 54.3074 56.4454 54.3074 54.2367V43.1935C54.3074 40.9848 56.1071 39.1903 58.3221 39.1903H80.6105C81.3719 39.1903 81.9948 39.8115 81.9948 40.5707V56.8595C82.0641 57.6187 81.4411 58.2399 80.6105 58.2399ZM58.3221 41.9511C57.6299 41.9511 57.0761 42.5033 57.0761 43.1935V54.3057C57.0761 54.9959 57.6299 55.4791 58.3221 55.4791H79.2261V41.9511H58.3221Z" fill="#156EFF"/>
<path d="M78.3262 39.1903V26.0765C78.3262 23.3847 76.1112 21.2451 73.4809 21.2451H17.0676C12.0839 21.2451 10.7687 19.8646 10.7687 18.6913C10.7687 17.518 11.0456 14.8262 17.0676 14.8262H67.3204C69.5354 14.8262 70.366 14.9642 70.366 17.1729C70.366 17.9321 70.989 17.8631 71.7504 17.8631C72.5118 17.8631 73.1348 17.9321 73.1348 17.1729C73.1348 13.4458 70.989 12.0654 67.3204 12.0654H17.0676C9.59203 12.0654 8 15.7925 8 18.8984V71.3537C8 74.0455 10.215 76.1851 12.8453 76.1851H73.4116C76.1112 76.1851 78.2569 73.9765 78.2569 71.3537V58.2399H75.4882V71.3537C75.4882 72.5271 74.5191 73.4243 73.4116 73.4243H12.8453C11.6686 73.4243 10.7687 72.458 10.7687 71.3537V22.2804C12.0839 23.1776 14.0912 23.9368 17.0676 23.9368H73.4809C74.6576 23.9368 75.5574 24.9031 75.5574 26.0074V39.1213H78.3262V39.1903Z" fill="#156EFF"/>
</svg>
