<svg width="90" height="90" viewBox="0 0 90 90" fill="none" xmlns="http://www.w3.org/2000/svg">
<path d="M52.8604 88.9246C52.3289 88.9246 51.7973 88.8072 51.2658 88.5137L46.1868 85.8726C45.4781 85.5204 44.6513 85.5204 44.0016 85.8726L38.9226 88.5137C37.7414 89.1007 36.3831 89.042 35.32 88.279C34.257 87.516 33.7254 86.2247 33.9617 84.9335L34.9066 79.2989C35.0247 78.5359 34.7885 77.7729 34.1979 77.186L30.0638 73.1948C29.1189 72.3144 28.8236 70.9645 29.1779 69.7319C29.5913 68.4994 30.6544 67.619 31.9537 67.4429L37.6233 66.6212C38.3911 66.5038 39.0407 66.0343 39.395 65.3299L41.9346 60.2236C42.5252 59.0498 43.7063 58.3455 45.0056 58.3455C46.3049 58.3455 47.4861 59.0498 48.0767 60.2236L50.6162 65.3299C50.9705 66.0343 51.6202 66.5038 52.3879 66.6212L58.0575 67.4429C59.3568 67.619 60.4199 68.4994 60.8333 69.7319C61.2467 70.9645 60.8924 72.3144 59.9474 73.1948L55.8133 77.186C55.2818 77.7142 54.9865 78.5359 55.1046 79.2989L56.0496 84.9335C56.2858 86.2247 55.7543 87.516 54.6912 88.279C54.2778 88.6898 53.5691 88.9246 52.8604 88.9246ZM45.0647 82.8792C45.8915 82.8792 46.7183 83.0553 47.427 83.4661L52.506 86.1073C52.8604 86.2834 53.0966 86.1073 53.2147 86.0486C53.3329 85.9899 53.5691 85.7552 53.51 85.403L52.5651 79.7685C52.2698 78.1251 52.8013 76.423 54.0416 75.2491L58.1757 71.258C58.471 71.0232 58.4119 70.671 58.3528 70.5536C58.2938 70.4363 58.1757 70.1428 57.8213 70.0841L52.1517 69.2624C50.4981 69.0276 49.0216 67.9711 48.3129 66.5038L45.7734 61.3975C45.5962 61.0453 45.3009 61.0453 45.1828 61.0453C45.0647 61.0453 44.7694 61.104 44.5922 61.3975L42.0527 66.5038C41.2849 68.0298 39.8675 69.0276 38.2139 69.2624L32.5443 70.0841C32.1899 70.1428 32.0127 70.4363 32.0127 70.5536C31.9537 70.671 31.8946 70.9645 32.1899 71.258L36.324 75.2491C37.5052 76.423 38.0958 78.1251 37.8005 79.7685L36.8555 85.403C36.7965 85.7552 37.0327 85.9899 37.1508 86.0486C37.2689 86.1073 37.5052 86.2834 37.8595 86.1073L42.9386 83.4661C43.411 83.0553 44.2378 82.8792 45.0647 82.8792Z" fill="#156EFF"/>
<path d="M81.917 75.8947C81.4445 75.8947 80.913 75.7773 80.4405 75.5426L76.0702 73.2535C75.5386 72.9601 74.889 72.9601 74.3575 73.2535L69.9871 75.5426C68.9241 76.0708 67.6839 76.0121 66.6799 75.3078C65.7349 74.6035 65.2625 73.4296 65.4396 72.2557L66.2665 67.4429C66.3846 66.856 66.1483 66.269 65.7349 65.7995L62.1914 62.3953C61.3055 61.5736 61.0102 60.341 61.4237 59.2258C61.778 58.1107 62.782 57.289 63.9632 57.1129L68.806 56.4086C69.3966 56.3499 69.9281 55.939 70.1643 55.4108L72.3495 51.0088C72.881 49.9523 73.9441 49.3067 75.1252 49.3067C76.3064 49.3067 77.3695 49.9523 77.901 51.0088L80.0861 55.4108C80.3814 55.939 80.8539 56.3499 81.4445 56.4086L86.2873 57.1129C87.4685 57.289 88.4134 58.1107 88.8268 59.2258C89.2402 60.341 88.8859 61.5736 88.0591 62.3953L84.5155 65.7995C84.1021 66.2103 83.8659 66.7973 83.984 67.4429L84.8108 72.2557C84.988 73.4296 84.5155 74.6035 83.5706 75.3078C83.1572 75.6599 82.5666 75.8947 81.917 75.8947ZM75.2434 70.3189C75.9521 70.3189 76.7198 70.4949 77.3695 70.8471L81.7398 73.1361C81.917 73.2535 82.0351 73.1948 82.1532 73.1361C82.2713 73.0774 82.3304 72.96 82.3304 72.784L81.5036 67.9711C81.2673 66.5038 81.7398 64.9778 82.8028 63.9213L86.3464 60.5171C86.4645 60.3997 86.4645 60.2236 86.4645 60.1062C86.4054 59.9889 86.3464 59.8715 86.1692 59.8715L81.3264 59.1672C79.8499 58.9324 78.5506 57.9933 77.901 56.702L75.7158 52.3001C75.6568 52.124 75.4796 52.0653 75.3615 52.0653C75.2434 52.0653 75.1252 52.124 75.0071 52.3001L72.822 56.702C72.1723 58.052 70.873 58.9911 69.3966 59.1672L64.5538 59.8715C64.3766 59.8715 64.2585 60.0476 64.2585 60.1062C64.1994 60.2236 64.1994 60.341 64.3766 60.5171L67.9201 63.9213C68.9831 64.9778 69.5147 66.4451 69.2194 67.9711L68.3926 72.784C68.3335 72.96 68.4516 73.0774 68.5697 73.1361C68.6288 73.1948 68.806 73.2535 68.9831 73.1361L73.3535 70.8471C73.7669 70.4949 74.4756 70.3189 75.2434 70.3189Z" fill="#156EFF"/>
<path d="M8.27094 75.8947C7.62129 75.8947 6.97165 75.7186 6.44012 75.3078C5.49518 74.6035 5.02272 73.4296 5.19989 72.2557L6.02671 67.4429C6.14483 66.856 5.90859 66.269 5.49518 65.7995L1.95167 62.3953C1.06579 61.5736 0.7705 60.341 1.18391 59.2258C1.59732 58.1107 2.54226 57.289 3.72343 57.1129L8.56623 56.4086C9.15681 56.3499 9.68834 55.939 9.92457 55.4108L12.1097 51.0088C12.6413 49.9523 13.7043 49.3067 14.8855 49.3067C16.0667 49.3067 17.1297 49.9523 17.6612 51.0088L19.9055 55.4108C20.2008 55.939 20.6732 56.3499 21.2638 56.4086L26.1066 57.1129C27.2878 57.289 28.2327 58.1107 28.6461 59.2258C29.0005 60.341 28.7052 61.5736 27.8784 62.3953L24.3349 65.7995C23.9214 66.2103 23.6852 66.7973 23.8033 67.4429L24.6301 72.2557C24.8073 73.4296 24.3349 74.6035 23.3899 75.3078C22.445 76.0121 21.1457 76.0708 20.0826 75.5426L15.7123 73.2535C15.1808 72.9601 14.5311 72.9601 13.9996 73.2535L9.62928 75.5426C9.21587 75.7773 8.7434 75.8947 8.27094 75.8947ZM14.8855 52.0066C14.7674 52.0066 14.6493 52.0653 14.5311 52.2414L12.405 56.5847C11.7554 57.9346 10.4561 58.8737 8.97964 59.0498L4.13684 59.7541C3.95966 59.7541 3.84154 59.9302 3.84154 59.9889C3.78249 60.1062 3.78249 60.2236 3.95966 60.3997L7.50317 63.8039C8.56623 64.8604 9.09775 66.3277 8.80246 67.8537L7.97564 72.6666C7.91658 72.8427 8.0347 72.9601 8.15282 73.0187C8.27094 73.0774 8.38905 73.1361 8.56623 73.0187L12.9366 70.7297C14.2949 70.0254 15.8895 70.0254 17.1888 70.7297L21.5591 73.0187C21.7363 73.1361 21.8544 73.0774 21.9725 73.0187C22.0316 72.9601 22.1497 72.8427 22.1497 72.6666L21.3229 67.8537C21.0866 66.3864 21.5591 64.8604 22.6222 63.8039L26.1657 60.3997C26.2838 60.2823 26.2838 60.1062 26.2838 59.9889C26.2247 59.8715 26.1657 59.7541 25.9885 59.7541L21.1457 59.0498C19.6692 58.815 18.3699 57.8759 17.7203 56.5847L15.5351 52.1827C15.1808 52.0653 15.0036 52.0066 14.8855 52.0066Z" fill="#156EFF"/>
<path d="M52.742 53.2391H37.3868C34.0795 53.2391 31.3628 50.5392 31.3628 47.2524V40.9136C31.3628 34.5747 36.5599 29.4684 42.8792 29.4684H47.1905C53.5688 29.4684 58.7069 34.6334 58.7069 40.9136V47.3111C58.766 50.5979 56.1083 53.2391 52.742 53.2391ZM42.9383 32.1683C38.0955 32.1683 34.1385 36.1007 34.1385 40.9136V47.3111C34.1385 49.1306 35.615 50.5392 37.3868 50.5392H52.742C54.5728 50.5392 55.9902 49.0719 55.9902 47.3111V40.9136C55.9902 36.1007 52.0333 32.1683 47.1905 32.1683H42.9383Z" fill="#156EFF"/>
<path d="M45.0643 32.1683C39.0994 32.1683 34.1975 27.3555 34.1975 21.3688C34.1975 15.3821 39.0403 10.5692 45.0643 10.5692C51.0882 10.5692 55.931 15.4407 55.931 21.3688C55.931 27.2968 51.0292 32.1683 45.0643 32.1683ZM45.0643 13.3278C40.5758 13.3278 36.9733 16.9668 36.9733 21.3688C36.9733 25.7707 40.5758 29.4097 45.0643 29.4097C49.5527 29.4097 53.1553 25.7707 53.1553 21.3688C53.1553 16.9668 49.5527 13.3278 45.0643 13.3278Z" fill="#156EFF"/>
<path d="M81.3264 45.0808C81.2673 45.0808 81.2083 45.0808 81.1492 45.0808C80.3814 45.0221 79.8499 44.3178 79.909 43.5548C80.972 33.6356 77.7829 23.7165 71.0502 16.3211C64.4356 8.98449 54.8682 4.69989 44.8282 4.69989C34.8473 4.69989 25.3389 8.92579 18.6653 16.2624C11.9917 23.6578 8.68438 33.5182 9.74743 43.3787C9.80649 44.1417 9.27496 44.7873 8.5072 44.846C7.73944 44.9047 7.0898 44.3765 7.03074 43.6135C5.96769 32.99 9.45214 22.3078 16.6573 14.3843C23.8034 6.51937 34.0795 2 44.8282 2C55.6359 2 65.9121 6.57807 73.1172 14.5603C80.3224 22.5426 83.8068 33.2248 82.6257 43.9069C82.5666 44.6112 81.976 45.0808 81.3264 45.0808Z" fill="#156EFF"/>
</svg>
