<svg width="24" height="25" viewBox="0 0 24 25" fill="none" xmlns="http://www.w3.org/2000/svg">
<path d="M17.498 15.0486C17.197 14.8986 15.731 14.1816 15.458 14.0826C15.185 13.9816 14.985 13.9326 14.785 14.2326C14.588 14.5276 14.014 15.1966 13.841 15.3946C13.666 15.5896 13.492 15.6046 13.195 15.4696C12.895 15.3196 11.932 15.0046 10.792 13.9846C9.904 13.1896 9.308 12.2146 9.132 11.9146C8.958 11.6146 9.113 11.4496 9.262 11.2996C9.398 11.1646 9.563 10.9546 9.713 10.7766C9.859 10.5956 9.907 10.4756 10.01 10.2806C10.11 10.0706 10.059 9.90563 9.985 9.75663C9.91 9.60663 9.313 8.13663 9.063 7.55063C8.823 6.96663 8.576 7.04063 8.391 7.04063C8.219 7.02563 8.02 7.02563 7.82 7.02563C7.62 7.02563 7.297 7.09963 7.023 7.38463C6.75 7.68463 5.978 8.40463 5.978 9.85963C5.978 11.3146 7.048 12.7246 7.197 12.9346C7.346 13.1296 9.302 16.1296 12.297 17.4196C13.011 17.7196 13.567 17.8996 14.001 18.0486C14.715 18.2756 15.366 18.2436 15.881 18.1696C16.455 18.0786 17.648 17.4486 17.897 16.7436C18.152 16.0386 18.152 15.4536 18.077 15.3186C18.003 15.1836 17.807 15.1086 17.507 14.9736L17.498 15.0486ZM12.061 22.4166H12.045C10.275 22.4166 8.521 21.9366 6.99 21.0366L6.63 20.8226L2.88 21.7976L3.885 18.1526L3.646 17.7776C2.656 16.2016 2.13 14.3866 2.13 12.5176C2.13 7.07263 6.585 2.63263 12.072 2.63263C14.726 2.63263 17.217 3.66763 19.093 5.54263C20.968 7.40163 22.002 9.89263 22.002 12.5326C21.998 17.9766 17.542 22.4176 12.067 22.4176L12.061 22.4166ZM20.52 4.11563C18.24 1.91163 15.24 0.666626 12.045 0.666626C5.463 0.666626 0.104 6.00063 0.101 12.5596C0.101 14.6556 0.65 16.6996 1.696 18.5046L0 24.6666L6.335 23.0146C8.081 23.9576 10.045 24.4586 12.045 24.4616H12.051C18.636 24.4616 23.997 19.1256 24 12.5656C24 9.38963 22.76 6.40063 20.505 4.15463" fill="white"/>
</svg>
