<svg width="28" height="24" viewBox="0 0 28 24" fill="none" xmlns="http://www.w3.org/2000/svg">
<path fill-rule="evenodd" clip-rule="evenodd" d="M2.30233 10.5362C8.71365 7.75187 12.9818 5.90175 15.125 5.00416C21.2249 2.45795 22.5072 2.01832 23.3315 2C23.5147 2 23.9176 2.03664 24.1924 2.25645C24.4122 2.43963 24.4672 2.67777 24.5038 2.86095C24.5405 3.04413 24.5771 3.42881 24.5405 3.7219C24.2107 7.20233 22.7819 15.647 22.0492 19.5304C21.7378 21.179 21.1333 21.7285 20.5471 21.7835C19.2649 21.8934 18.294 20.9409 17.0667 20.1349C15.125 18.8709 14.0442 18.0833 12.1574 16.8376C9.9776 15.4088 11.3881 14.6211 12.6337 13.3389C12.9634 13.0092 18.5871 7.8801 18.697 7.42215C18.7153 7.36719 18.7153 7.14737 18.5871 7.03747C18.4589 6.92756 18.2757 6.96419 18.1291 7.00083C17.9276 7.03747 14.8502 9.08909 8.8602 13.1374C7.98093 13.7419 7.19325 14.035 6.47885 14.0166C5.69117 13.9983 4.18909 13.577 3.05337 13.2106C1.67952 12.771 0.580434 12.5329 0.672024 11.7635C0.726979 11.3605 1.27652 10.9575 2.30233 10.5362Z" fill="white"/>
</svg>
