<svg width="130" height="33" viewBox="0 0 130 33" fill="none" xmlns="http://www.w3.org/2000/svg">
<path d="M0.709851 0.600991H5.19542V28.0976H22.1957V32H0.709851V0.600991ZM40.9479 32.3588C37.7781 32.3588 34.9223 31.6711 32.3804 30.2955C29.8386 28.89 27.8351 26.9612 26.3698 24.5091C24.9344 22.057 24.2167 19.3208 24.2167 16.3005C24.2167 13.2802 24.9344 10.544 26.3698 8.0919C27.8351 5.63978 29.8386 3.72594 32.3804 2.35037C34.9223 0.944887 37.7781 0.242147 40.9479 0.242147C44.0878 0.242147 46.9287 0.944887 49.4705 2.35037C52.0123 3.72594 54.0009 5.63978 55.4363 8.0919C56.8717 10.5141 57.5894 13.2503 57.5894 16.3005C57.5894 19.3507 56.8717 22.1018 55.4363 24.5539C54.0009 26.9762 52.0123 28.89 49.4705 30.2955C46.9287 31.6711 44.0878 32.3588 40.9479 32.3588ZM40.9479 28.3667C43.2505 28.3667 45.3138 27.8434 47.138 26.7967C48.992 25.7501 50.4424 24.3147 51.489 22.4906C52.5655 20.6365 53.1038 18.5732 53.1038 16.3005C53.1038 14.0278 52.5655 11.9794 51.489 10.1553C50.4424 8.30122 48.992 6.85089 47.138 5.80425C45.3138 4.75762 43.2505 4.23431 40.9479 4.23431C38.6453 4.23431 36.552 4.75762 34.6681 5.80425C32.8141 6.85089 31.3488 8.30122 30.2722 10.1553C29.2256 11.9794 28.7023 14.0278 28.7023 16.3005C28.7023 18.5732 29.2256 20.6365 30.2722 22.4906C31.3488 24.3147 32.8141 25.7501 34.6681 26.7967C36.552 27.8434 38.6453 28.3667 40.9479 28.3667ZM86.2003 16.1211H90.5065V28.3667C88.9515 29.6526 87.1423 30.6394 85.0789 31.3272C83.0155 32.015 80.8625 32.3588 78.6197 32.3588C75.4499 32.3588 72.5941 31.6711 70.0522 30.2955C67.5104 28.89 65.5069 26.9762 64.0416 24.5539C62.6062 22.1018 61.8885 19.3507 61.8885 16.3005C61.8885 13.2503 62.6062 10.4992 64.0416 8.04704C65.5069 5.59493 67.5104 3.68108 70.0522 2.30551C72.624 0.929934 75.5097 0.242147 78.7094 0.242147C81.2213 0.242147 83.494 0.6608 85.5275 1.49811C87.5908 2.30551 89.3402 3.50166 90.7756 5.08656L87.9945 7.86762C85.4826 5.44541 82.4474 4.23431 78.8888 4.23431C76.4965 4.23431 74.3434 4.75762 72.4296 5.80425C70.5457 6.82099 69.0654 8.25637 67.9889 10.1104C66.9123 11.9345 66.3741 13.9979 66.3741 16.3005C66.3741 18.5732 66.9123 20.6365 67.9889 22.4906C69.0654 24.3147 70.5457 25.7501 72.4296 26.7967C74.3434 27.8434 76.4816 28.3667 78.844 28.3667C81.6549 28.3667 84.107 27.6939 86.2003 26.3482V16.1211ZM113.269 32.3588C110.099 32.3588 107.243 31.6711 104.702 30.2955C102.16 28.89 100.156 26.9612 98.6909 24.5091C97.2555 22.057 96.5378 19.3208 96.5378 16.3005C96.5378 13.2802 97.2555 10.544 98.6909 8.0919C100.156 5.63978 102.16 3.72594 104.702 2.35037C107.243 0.944887 110.099 0.242147 113.269 0.242147C116.409 0.242147 119.25 0.944887 121.792 2.35037C124.333 3.72594 126.322 5.63978 127.757 8.0919C129.193 10.5141 129.91 13.2503 129.91 16.3005C129.91 19.3507 129.193 22.1018 127.757 24.5539C126.322 26.9762 124.333 28.89 121.792 30.2955C119.25 31.6711 116.409 32.3588 113.269 32.3588ZM113.269 28.3667C115.572 28.3667 117.635 27.8434 119.459 26.7967C121.313 25.7501 122.763 24.3147 123.81 22.4906C124.887 20.6365 125.425 18.5732 125.425 16.3005C125.425 14.0278 124.887 11.9794 123.81 10.1553C122.763 8.30122 121.313 6.85089 119.459 5.80425C117.635 4.75762 115.572 4.23431 113.269 4.23431C110.966 4.23431 108.873 4.75762 106.989 5.80425C105.135 6.85089 103.67 8.30122 102.593 10.1553C101.547 11.9794 101.023 14.0278 101.023 16.3005C101.023 18.5732 101.547 20.6365 102.593 22.4906C103.67 24.3147 105.135 25.7501 106.989 26.7967C108.873 27.8434 110.966 28.3667 113.269 28.3667Z" fill="#1864FF"/>
</svg>
