<svg width="25" height="26" viewBox="0 0 25 26" fill="none" xmlns="http://www.w3.org/2000/svg">
<path d="M12.6667 0.692383C9.32311 0.692383 8.90567 0.707767 7.59285 0.766229C6.28208 0.827767 5.38978 1.03392 4.60516 1.33854C3.79593 1.65238 3.10875 2.07392 2.42465 2.75802C1.74055 3.44213 1.31798 4.12828 1.00516 4.93854C0.700546 5.72315 0.493368 6.61546 0.432855 7.92623C0.371317 9.23905 0.359009 9.65648 0.359009 13.0001C0.359009 16.3437 0.374393 16.7611 0.432855 18.0739C0.494393 19.3837 0.700546 20.277 1.00516 21.0616C1.31901 21.8698 1.74055 22.558 2.42465 23.2421C3.10875 23.9252 3.79491 24.3488 4.60516 24.6616C5.3908 24.9652 6.28311 25.1734 7.59285 25.2339C8.90567 25.2955 9.32311 25.3078 12.6667 25.3078C16.0103 25.3078 16.4277 25.2924 17.7405 25.2339C19.0503 25.1724 19.9436 24.9652 20.7282 24.6616C21.5364 24.3478 22.2246 23.9252 22.9088 23.2421C23.5918 22.558 24.0154 21.8729 24.3282 21.0616C24.6318 20.277 24.84 19.3837 24.9005 18.0739C24.9621 16.7611 24.9744 16.3437 24.9744 13.0001C24.9744 9.65648 24.959 9.23905 24.9005 7.92623C24.839 6.61648 24.6318 5.72213 24.3282 4.93854C24.0144 4.12931 23.5918 3.44213 22.9088 2.75802C22.2246 2.07392 21.5395 1.65136 20.7282 1.33854C19.9436 1.03392 19.0503 0.826742 17.7405 0.766229C16.4277 0.704691 16.0103 0.692383 12.6667 0.692383ZM12.6667 2.90777C15.9518 2.90777 16.3436 2.92418 17.6411 2.98059C18.8411 3.037 19.4923 3.23597 19.9252 3.40623C20.5016 3.62879 20.9098 3.89546 21.3426 4.3252C21.7723 4.75597 22.039 5.1652 22.2616 5.74161C22.4298 6.17443 22.6308 6.82571 22.6852 8.02571C22.7436 9.32418 22.757 9.71392 22.757 13.0001C22.757 16.2862 22.7416 16.677 22.6811 17.9744C22.6185 19.1744 22.4185 19.8257 22.2493 20.2585C22.0195 20.8349 21.758 21.2431 21.3272 21.676C20.8975 22.1057 20.4821 22.3724 19.9118 22.5949C19.4811 22.7632 18.8195 22.9642 17.6195 23.0185C16.3129 23.077 15.9282 23.0903 12.6359 23.0903C9.3426 23.0903 8.95798 23.0749 7.65234 23.0144C6.45131 22.9519 5.78978 22.7519 5.35901 22.5826C4.77542 22.3529 4.37439 22.0914 3.94465 21.6606C3.51285 21.2308 3.23696 20.8155 3.02157 20.2452C2.85234 19.8144 2.65337 19.1529 2.5908 17.9529C2.54465 16.6606 2.52824 16.2616 2.52824 12.9847C2.52824 9.70674 2.54465 9.30674 2.5908 7.99905C2.65337 6.79905 2.85234 6.13854 3.02157 5.70777C3.23696 5.12315 3.51285 4.72315 3.94465 4.29136C4.37439 3.86161 4.77542 3.58469 5.35901 3.37033C5.78978 3.20007 6.43696 3.00007 7.63696 2.93854C8.94465 2.89238 9.32926 2.877 12.6205 2.877L12.6667 2.90777ZM12.6667 6.68007C9.17439 6.68007 6.3467 9.51084 6.3467 13.0001C6.3467 16.4924 9.17747 19.3201 12.6667 19.3201C16.159 19.3201 18.9867 16.4893 18.9867 13.0001C18.9867 9.50777 16.1559 6.68007 12.6667 6.68007ZM12.6667 17.1026C10.4 17.1026 8.56414 15.2667 8.56414 13.0001C8.56414 10.7334 10.4 8.89751 12.6667 8.89751C14.9334 8.89751 16.7693 10.7334 16.7693 13.0001C16.7693 15.2667 14.9334 17.1026 12.6667 17.1026ZM20.7139 6.43084C20.7139 7.24623 20.0513 7.90777 19.237 7.90777C18.4216 7.90777 17.76 7.2452 17.76 6.43084C17.76 5.61648 18.4226 4.95495 19.237 4.95495C20.0503 4.95392 20.7139 5.61648 20.7139 6.43084Z" fill="white"/>
</svg>
