<svg width="90" height="90" viewBox="0 0 90 90" fill="none" xmlns="http://www.w3.org/2000/svg">
<path d="M24.0016 73.4588C18.9133 73.4588 14.6849 69.2874 14.6849 64.1091C14.6849 58.9309 18.8416 54.7595 24.0016 54.7595C29.0899 54.7595 33.3183 58.9309 33.3183 64.1091C33.3183 69.2874 29.1616 73.4588 24.0016 73.4588ZM24.0016 57.6363C20.4899 57.6363 17.5516 60.5131 17.5516 64.1091C17.5516 67.6333 20.4183 70.582 24.0016 70.582C27.5133 70.582 30.4516 67.7052 30.4516 64.1091C30.4516 60.5131 27.5849 57.6363 24.0016 57.6363Z" fill="#156EFF"/>
<path d="M72.52 73.4588C67.4317 73.4588 63.2034 69.2874 63.2034 64.1091C63.2034 58.9309 67.36 54.7595 72.52 54.7595C77.6084 54.7595 81.8367 58.9309 81.8367 64.1091C81.8367 69.2874 77.68 73.4588 72.52 73.4588ZM72.52 57.6363C69.0084 57.6363 66.07 60.5131 66.07 64.1091C66.07 67.6333 68.9367 70.582 72.52 70.582C76.0317 70.582 78.97 67.7052 78.97 64.1091C78.97 60.5131 76.1034 57.6363 72.52 57.6363Z" fill="#156EFF"/>
<path d="M77.3934 44.4747H61.6267C60.8384 44.4747 60.1934 43.8275 60.1934 43.0363V32.6078C60.1934 31.8167 60.8384 31.1694 61.6267 31.1694H72.5917C73.0217 31.1694 73.4517 31.3852 73.6667 31.6729L78.4684 37.4984C78.6834 37.7861 78.8267 38.0738 78.8267 38.4334V43.1083C78.8267 43.8275 78.1817 44.4747 77.3934 44.4747ZM63.06 41.5979H75.96V38.9369L71.875 34.0463H63.06V41.5979Z" fill="#156EFF"/>
<path d="M49.9449 44.4748H9.30992C8.52159 44.4748 7.87659 43.8276 7.87659 43.0364C7.87659 42.2453 8.52159 41.598 9.30992 41.598H49.9449C50.7333 41.598 51.3783 42.2453 51.3783 43.0364C51.3783 43.8276 50.7333 44.4748 49.9449 44.4748Z" fill="#156EFF"/>
<path d="M24.0017 66.5544C25.3475 66.5544 26.4384 65.4596 26.4384 64.1091C26.4384 62.7586 25.3475 61.6638 24.0017 61.6638C22.656 61.6638 21.5651 62.7586 21.5651 64.1091C21.5651 65.4596 22.656 66.5544 24.0017 66.5544Z" fill="#156EFF"/>
<path d="M72.5199 66.5544C73.8657 66.5544 74.9566 65.4596 74.9566 64.1091C74.9566 62.7586 73.8657 61.6638 72.5199 61.6638C71.1742 61.6638 70.0833 62.7586 70.0833 64.1091C70.0833 65.4596 71.1742 66.5544 72.5199 66.5544Z" fill="#156EFF"/>
<path d="M53.5283 63.1023H31.455C30.81 63.1023 30.3083 62.6707 30.0933 62.0954C29.2333 59.4343 26.7967 57.6363 24.0017 57.6363C21.2067 57.6363 18.77 59.4343 17.91 62.0954C17.695 62.6707 17.1933 63.1023 16.5483 63.1023H5.58333C3.57667 63.1023 2 61.52 2 59.5062V17.3607C2 15.347 3.57667 13.7647 5.58333 13.7647H53.5283C55.535 13.7647 57.1117 15.347 57.1117 17.3607V59.5062C57.1117 61.4481 55.4633 63.1023 53.5283 63.1023ZM32.4583 60.2254H53.5283C53.9583 60.2254 54.245 59.9378 54.245 59.5062V17.3607C54.245 16.9292 53.9583 16.6415 53.5283 16.6415H5.58333C5.15333 16.6415 4.86667 16.9292 4.86667 17.3607V59.5062C4.86667 59.9378 5.15333 60.2254 5.58333 60.2254H15.6167C17.05 56.9171 20.3467 54.7595 24.0017 54.7595C27.6567 54.7595 30.9533 56.9171 32.4583 60.2254Z" fill="#156EFF"/>
<path d="M86.4233 38.4335L77.8233 27.4297C76.7483 25.9913 75.0283 25.2001 73.2367 25.2001H57.1117V28.7962C57.1117 28.3646 57.3983 28.077 57.8283 28.077H73.2367C74.1683 28.077 75.0283 28.5085 75.6017 29.2277L84.13 40.2315C84.775 41.0946 85.1333 42.1015 85.1333 43.1803V59.5063C85.1333 59.9378 84.8467 60.2255 84.4167 60.2255H80.9767C79.4717 56.9171 76.175 54.7595 72.52 54.7595C68.865 54.7595 65.5683 56.9171 64.0633 60.2255H57.7567C57.3267 60.2255 57.04 59.9378 57.04 59.5063C57.04 61.52 55.4633 63.1023 53.4567 63.1023H65.0667C65.7117 63.1023 66.2133 62.6708 66.4283 62.0954C67.2883 59.4343 69.725 57.6363 72.52 57.6363C75.315 57.6363 77.7517 59.4343 78.6117 62.0954C78.8267 62.6708 79.3283 63.1023 79.9733 63.1023H84.4167C86.4233 63.1023 88 61.52 88 59.5063V43.1803C88 41.4542 87.4267 39.7281 86.4233 38.4335Z" fill="#156EFF"/>
</svg>
