<?xml version="1.0" encoding="utf-8"?><svg viewBox="0 0 130 90" xmlns="http://www.w3.org/2000/svg" xmlns:xlink="http://www.w3.org/1999/xlink"><style>:root>svg{display:none}:root>svg:target{display:block}</style><svg viewBox="0 0 90 90" id="icon-billfold" xmlns="http://www.w3.org/2000/svg"><path d="M64.967 53.684a4.956 4.956 0 01-4.984-4.969c0-2.76 2.215-4.97 4.984-4.97a4.956 4.956 0 014.984 4.97c0 2.76-2.285 4.97-4.984 4.97zm0-7.178a2.184 2.184 0 00-2.215 2.21c0 1.241.969 2.208 2.215 2.208a2.184 2.184 0 002.215-2.209c0-1.242-1.038-2.209-2.215-2.209zm-40.285 22.57h-4.638a1.386 1.386 0 01-1.384-1.38c0-.76.623-1.38 1.384-1.38h4.638c.761 0 1.384.62 1.384 1.38 0 .759-.623 1.38-1.384 1.38zm13.843 0h-4.637a1.386 1.386 0 01-1.385-1.38c0-.76.623-1.38 1.385-1.38h4.637c.762 0 1.385.62 1.385 1.38 0 .759-.623 1.38-1.385 1.38zm13.845 0h-4.64a1.386 1.386 0 01-1.384-1.38c0-.76.623-1.38 1.384-1.38h4.638c.762 0 1.385.62 1.385 1.38 0 .759-.623 1.38-1.385 1.38zm13.843 0h-4.638a1.386 1.386 0 01-1.384-1.38c0-.76.623-1.38 1.384-1.38h4.638c.761 0 1.384.62 1.384 1.38 0 .759-.623 1.38-1.384 1.38zM24.682 31.115h-4.638a1.386 1.386 0 01-1.384-1.38c0-.76.623-1.38 1.384-1.38h4.638c.761 0 1.384.62 1.384 1.38 0 .759-.623 1.38-1.384 1.38zm13.843 0h-4.637a1.386 1.386 0 01-1.385-1.38c0-.76.623-1.38 1.385-1.38h4.637c.762 0 1.385.62 1.385 1.38 0 .759-.623 1.38-1.385 1.38zm13.845 0h-4.64a1.386 1.386 0 01-1.384-1.38c0-.76.623-1.38 1.384-1.38h4.638c.762 0 1.385.62 1.385 1.38 0 .759-.623 1.38-1.385 1.38zm13.843 0h-4.638a1.386 1.386 0 01-1.384-1.38c0-.76.623-1.38 1.384-1.38h4.638c.761 0 1.384.62 1.384 1.38 0 .759-.623 1.38-1.384 1.38z"/><path d="M80.61 58.24H58.323a4.012 4.012 0 01-4.015-4.003V43.193c0-2.208 1.8-4.003 4.015-4.003H80.61c.762 0 1.385.622 1.385 1.38v16.29c.07.759-.554 1.38-1.385 1.38zM58.323 41.95a1.24 1.24 0 00-1.246 1.242v11.113c0 .69.554 1.173 1.246 1.173h20.904V41.951H58.322z"/><path d="M78.326 39.19V26.077c0-2.692-2.215-4.832-4.845-4.832H17.068c-4.984 0-6.3-1.38-6.3-2.554 0-1.173.278-3.865 6.3-3.865H67.32c2.215 0 3.046.138 3.046 2.347 0 .76.623.69 1.384.69.762 0 1.385.07 1.385-.69 0-3.727-2.146-5.108-5.815-5.108H17.068C9.592 12.065 8 15.793 8 18.898v52.456c0 2.692 2.215 4.831 4.845 4.831h60.567c2.7 0 4.845-2.209 4.845-4.831V58.24h-2.769v13.114c0 1.173-.969 2.07-2.076 2.07H12.845a2.08 2.08 0 01-2.076-2.07V22.28c1.315.898 3.322 1.657 6.299 1.657H73.48a2.08 2.08 0 012.076 2.07v13.114h2.77v.07z"/></svg><svg viewBox="0 0 24 24" id="icon-cart" xmlns="http://www.w3.org/2000/svg"><path d="M9 22a1 1 0 100-2 1 1 0 000 2zm11 0a1 1 0 100-2 1 1 0 000 2zM1 1h4l2.68 13.39a2 2 0 002 1.61h9.72a2 2 0 002-1.61L23 6H6"/></svg><svg viewBox="0 0 24 24" id="icon-heart" xmlns="http://www.w3.org/2000/svg"><path d="M20.84 4.61a5.5 5.5 0 00-7.78 0L12 5.67l-1.06-1.06a5.501 5.501 0 10-7.78 7.78l1.06 1.06L12 21.23l7.78-7.78 1.06-1.06a5.499 5.499 0 000-7.78z"/></svg><svg viewBox="0 0 130 33" id="icon-logo-mock" xmlns="http://www.w3.org/2000/svg"><path d="M.71.601h4.485v27.497h17V32H.71V.601zm40.238 31.758c-3.17 0-6.026-.688-8.568-2.064-2.541-1.405-4.545-3.334-6.01-5.786-1.436-2.452-2.153-5.188-2.153-8.209 0-3.02.717-5.756 2.153-8.208 1.465-2.452 3.469-4.366 6.01-5.742C34.922.945 37.778.242 40.948.242c3.14 0 5.98.703 8.523 2.108 2.541 1.376 4.53 3.29 5.965 5.742 1.436 2.422 2.153 5.158 2.153 8.208s-.717 5.802-2.153 8.254c-1.435 2.422-3.424 4.336-5.965 5.742-2.542 1.375-5.383 2.063-8.523 2.063zm0-3.992c2.303 0 4.366-.524 6.19-1.57a11.357 11.357 0 004.351-4.306c1.077-1.854 1.615-3.918 1.615-6.19 0-2.273-.538-4.322-1.615-6.146a11.267 11.267 0 00-4.351-4.35c-1.824-1.047-3.887-1.57-6.19-1.57-2.303 0-4.396.523-6.28 1.57a11.588 11.588 0 00-4.396 4.35c-1.046 1.824-1.57 3.873-1.57 6.146 0 2.272.524 4.336 1.57 6.19a11.687 11.687 0 004.396 4.306c1.884 1.046 3.977 1.57 6.28 1.57zM86.2 16.12h4.306v12.246c-1.555 1.286-3.364 2.272-5.427 2.96a20.29 20.29 0 01-6.46 1.032c-3.17 0-6.025-.688-8.567-2.064-2.542-1.405-4.545-3.319-6.01-5.741-1.436-2.452-2.154-5.203-2.154-8.253s.718-5.802 2.154-8.254c1.465-2.452 3.468-4.366 6.01-5.741C72.624.93 75.51.242 78.71.242c2.512 0 4.785.419 6.819 1.256 2.063.808 3.812 2.004 5.248 3.589l-2.781 2.78c-2.512-2.422-5.548-3.633-9.106-3.633-2.392 0-4.546.524-6.46 1.57a11.183 11.183 0 00-4.44 4.306c-1.077 1.825-1.615 3.888-1.615 6.19 0 2.273.538 4.337 1.615 6.19 1.076 1.825 2.557 3.26 4.44 4.307 1.914 1.046 4.053 1.57 6.415 1.57 2.81 0 5.263-.673 7.356-2.019V16.121zm27.07 16.24c-3.17 0-6.026-.688-8.567-2.064-2.542-1.405-4.546-3.334-6.011-5.786-1.436-2.452-2.153-5.188-2.153-8.209 0-3.02.718-5.756 2.153-8.208 1.465-2.452 3.469-4.366 6.011-5.742C107.244.946 110.1.243 113.27.243c3.14 0 5.981.703 8.523 2.108 2.541 1.376 4.53 3.29 5.965 5.742 1.436 2.422 2.153 5.158 2.153 8.208s-.717 5.802-2.153 8.254c-1.435 2.422-3.424 4.336-5.965 5.742-2.542 1.375-5.383 2.063-8.523 2.063zm0-3.992c2.303 0 4.366-.524 6.19-1.57a11.36 11.36 0 004.351-4.306c1.077-1.854 1.615-3.918 1.615-6.19 0-2.273-.538-4.322-1.615-6.146a11.27 11.27 0 00-4.351-4.35c-1.824-1.047-3.887-1.57-6.19-1.57-2.303 0-4.396.523-6.28 1.57a11.591 11.591 0 00-4.396 4.35c-1.046 1.824-1.57 3.873-1.57 6.146 0 2.272.524 4.336 1.57 6.19a11.69 11.69 0 004.396 4.306c1.884 1.046 3.977 1.57 6.28 1.57z"/></svg><svg viewBox="0 0 90 90" id="icon-profi" xmlns="http://www.w3.org/2000/svg"><path d="M52.86 88.925a3.23 3.23 0 01-1.594-.411l-5.08-2.641c-.708-.353-1.535-.353-2.184 0l-5.08 2.64c-1.18.588-2.539.529-3.602-.234a3.361 3.361 0 01-1.358-3.346l.945-5.634a2.41 2.41 0 00-.71-2.113l-4.133-3.991c-.945-.88-1.24-2.23-.886-3.463a3.388 3.388 0 012.776-2.29l5.67-.82a2.366 2.366 0 001.771-1.292l2.54-5.106a3.407 3.407 0 013.07-1.878c1.3 0 2.481.704 3.072 1.878l2.54 5.106a2.366 2.366 0 001.77 1.291l5.67.822a3.388 3.388 0 012.776 2.289 3.298 3.298 0 01-.886 3.463l-4.134 3.991c-.531.528-.827 1.35-.708 2.113l.945 5.634a3.362 3.362 0 01-1.359 3.346c-.413.41-1.122.646-1.83.646zm-7.795-6.046c.827 0 1.653.176 2.362.587l5.079 2.641c.354.176.59 0 .709-.058a.626.626 0 00.295-.646l-.945-5.635a4.994 4.994 0 011.477-4.519l4.134-3.991a.598.598 0 00.177-.704c-.06-.118-.177-.411-.532-.47l-5.67-.822c-1.653-.234-3.13-1.29-3.838-2.758l-2.54-5.107c-.177-.352-.472-.352-.59-.352a.722.722 0 00-.59.352l-2.54 5.107a5.052 5.052 0 01-3.84 2.758l-5.669.822c-.354.059-.531.352-.531.47-.06.117-.118.41.177.704l4.134 3.991c1.181 1.174 1.772 2.876 1.477 4.52l-.946 5.634a.626.626 0 00.296.646c.118.058.354.234.708.058l5.08-2.64c.472-.412 1.299-.588 2.126-.588zm36.852-6.984a3.404 3.404 0 01-1.477-.352l-4.37-2.29a1.776 1.776 0 00-1.712 0l-4.37 2.29c-1.064.528-2.304.47-3.308-.235a3.202 3.202 0 01-1.24-3.052l.826-4.813c.119-.587-.118-1.174-.531-1.644l-3.544-3.404a2.911 2.911 0 01-.767-3.17c.354-1.114 1.358-1.936 2.54-2.112l4.842-.704c.59-.06 1.122-.47 1.358-.998l2.186-4.402a3.082 3.082 0 012.775-1.702 3.08 3.08 0 012.776 1.702l2.185 4.402c.295.528.768.939 1.359.998l4.842.704c1.181.176 2.126.998 2.54 2.113.413 1.115.059 2.348-.768 3.17l-3.543 3.403c-.414.411-.65.998-.532 1.644l.827 4.813a3.202 3.202 0 01-1.24 3.052 2.57 2.57 0 01-1.654.587zm-6.674-5.576a4.56 4.56 0 012.127.528l4.37 2.29c.177.117.295.058.413 0 .118-.06.177-.177.177-.353l-.826-4.813a4.68 4.68 0 011.299-4.05l3.543-3.404c.118-.117.118-.293.118-.41-.059-.118-.118-.236-.295-.236l-4.843-.704c-1.476-.235-2.775-1.174-3.425-2.465L75.716 52.3c-.06-.176-.236-.235-.354-.235-.119 0-.237.059-.355.235l-2.185 4.402a4.404 4.404 0 01-3.425 2.465l-4.843.704c-.177 0-.296.177-.296.235-.059.118-.059.235.119.411l3.543 3.404c1.063 1.057 1.595 2.524 1.3 4.05l-.827 4.813c-.06.176.059.293.177.352.059.059.236.118.413 0l4.37-2.289c.414-.352 1.123-.528 1.89-.528zM8.27 75.895c-.649 0-1.298-.176-1.83-.587a3.202 3.202 0 01-1.24-3.052l.827-4.813c.118-.587-.118-1.174-.532-1.644l-3.543-3.404a2.911 2.911 0 01-.768-3.17c.413-1.114 1.358-1.936 2.54-2.112l4.842-.704c.59-.06 1.122-.47 1.359-.998l2.185-4.402a3.082 3.082 0 012.776-1.702 3.08 3.08 0 012.775 1.702l2.244 4.402c.296.528.768.939 1.359.998l4.843.704c1.18.176 2.126.998 2.54 2.113a3.14 3.14 0 01-.769 3.17l-3.543 3.403c-.414.411-.65.998-.532 1.644l.827 4.813a3.202 3.202 0 01-1.24 3.052c-.945.704-2.244.763-3.307.235l-4.37-2.29a1.776 1.776 0 00-1.713 0l-4.37 2.29a2.757 2.757 0 01-1.36.352zm6.616-23.888c-.119 0-.237.058-.355.234l-2.126 4.344A4.404 4.404 0 018.98 59.05l-4.843.704c-.177 0-.295.176-.295.235-.06.117-.06.235.118.41l3.543 3.405c1.063 1.056 1.595 2.524 1.3 4.05l-.827 4.813c-.06.176.059.293.177.352.118.058.236.117.413 0l4.37-2.29c1.359-.704 2.954-.704 4.253 0l4.37 2.29c.177.117.295.058.413 0 .06-.059.178-.176.178-.352l-.827-4.813a4.68 4.68 0 011.3-4.05l3.543-3.404c.118-.118.118-.294.118-.411-.06-.117-.118-.235-.296-.235l-4.842-.704c-1.477-.235-2.776-1.174-3.426-2.465l-2.185-4.402c-.354-.118-.531-.176-.65-.176zm37.856 1.233H37.387c-3.307 0-6.024-2.7-6.024-5.988v-6.338c0-6.34 5.197-11.446 11.516-11.446h4.312c6.378 0 11.516 5.165 11.516 11.446v6.397c.059 3.287-2.599 5.928-5.965 5.928zm-9.804-21.072c-4.843 0-8.8 3.933-8.8 8.746v6.397c0 1.82 1.477 3.228 3.249 3.228h15.355a3.229 3.229 0 003.248-3.228v-6.397c0-4.813-3.957-8.746-8.8-8.746h-4.252z"/><path d="M45.064 32.168c-5.965 0-10.867-4.813-10.867-10.8 0-5.986 4.843-10.799 10.867-10.799 6.024 0 10.867 4.872 10.867 10.8 0 5.928-4.902 10.8-10.867 10.8zm0-18.84c-4.488 0-8.09 3.639-8.09 8.04 0 4.403 3.602 8.042 8.09 8.042 4.489 0 8.091-3.64 8.091-8.041 0-4.402-3.602-8.041-8.09-8.041z"/><path d="M81.326 45.08h-.177c-.768-.058-1.3-.762-1.24-1.525 1.063-9.92-2.126-19.838-8.859-27.234C64.436 8.984 54.868 4.7 44.828 4.7a35.4 35.4 0 00-26.163 11.562c-6.673 7.396-9.98 17.256-8.918 27.117.06.763-.472 1.408-1.24 1.467-.768.059-1.417-.47-1.476-1.232-1.063-10.624 2.421-21.306 9.626-29.23C23.803 6.52 34.08 2 44.828 2a38.107 38.107 0 0128.29 12.56c7.204 7.983 10.689 18.665 9.508 29.347-.06.704-.65 1.174-1.3 1.174z"/></svg><svg viewBox="0 0 24 24" id="icon-search" xmlns="http://www.w3.org/2000/svg"><path d="M11 19a8 8 0 100-16 8 8 0 000 16zm10 2l-4.35-4.35"/></svg><svg viewBox="0 0 90 90" id="icon-shield" xmlns="http://www.w3.org/2000/svg"><g clip-path="url(#ga)" stroke-width=".5"><path d="M44.585 86.345c-.167 0-.388-.056-.554-.111C29.963 79.31 18.94 67.569 12.96 53.169c-3.877-9.304-5.317-19.883-4.265-30.627l.665-6.48c.055-.72.665-1.219 1.385-1.164.277 0 26.695 1.994 31.624-10.08.388-.886 1.219-1.495 2.27-1.495.998 0 1.94.554 2.327 1.44 5.206 12.185 31.348 10.08 31.625 10.08.72-.055 1.329.443 1.384 1.163l.665 6.59c.997 9.915-.222 19.773-3.49 28.469-5.76 15.397-17.113 27.858-31.9 35.114-.278.11-.444.166-.665.166zM11.797 17.557l-.499 5.261c-1.052 10.302.388 20.493 4.099 29.41 5.65 13.68 16.061 24.812 29.243 31.458 13.957-6.978 24.59-18.83 30.074-33.452 3.101-8.308 4.264-17.779 3.323-27.305l-.554-5.317c-5.594.277-27.36.665-32.843-11.464-5.206 11.963-27.25 11.686-32.843 11.409z"/><path d="M43.92 62.917c-10.966 0-19.883-8.917-19.883-19.883S32.954 23.15 43.92 23.15s19.883 8.917 19.883 19.883-8.917 19.883-19.883 19.883zm0-37.219c-9.526 0-17.335 7.754-17.335 17.336 0 9.581 7.753 17.335 17.335 17.335 9.581 0 17.335-7.754 17.335-17.335 0-9.582-7.754-17.335-17.335-17.335z"/><path d="M40.985 51.73c-.665 0-1.33-.278-1.828-.776l-6.535-6.203c-.499-.499-.499-1.33-.056-1.828.499-.498 1.33-.498 1.828-.055l6.48 6.258h.055c.056 0 .056 0 .056-.055l11.575-14.4c.443-.554 1.274-.665 1.828-.222.553.443.664 1.274.221 1.828l-11.575 14.4c-.443.61-1.163.941-1.883.997-.056.055-.111.055-.166.055z"/></g><defs><clipPath id="ga"><path d="M0 0h90v90H0z"/></clipPath></defs></svg><svg viewBox="0 0 90 90" id="icon-shirt" xmlns="http://www.w3.org/2000/svg"><path d="M54.649 12.874c-.57 4.815-4.633 8.624-9.623 8.624-4.918 0-9.052-3.737-9.622-8.624h-2.851C33.195 19.27 38.54 24.3 45.026 24.3c6.487 0 11.904-5.03 12.474-11.426h-2.851zM81.021 26.96c-1.924 1.724-7.27 6.682-8.696 7.976.57.647 1.212 1.437 1.782 2.227a805.276 805.276 0 008.696-7.976c-.57-.719-1.14-1.51-1.782-2.228zm-71.99 0c-.641.79-1.211 1.508-1.781 2.227l8.695 7.976c.642-.79 1.283-1.58 1.782-2.227l-8.696-7.977z"/><path d="M64.984 79.777H25.14a1.436 1.436 0 01-1.425-1.437V36.804c0-1.365-.5-2.228-1.283-2.228-.357 0-.642.144-.927.36-.57.503-4.063 4.814-7.128 8.767-.213.287-.641.503-.998.575-.427 0-.784-.072-1.069-.36L1.476 34.073a1.378 1.378 0 01-.142-1.94c.356-.503 9.408-12.36 14.326-16.887C21.006 10.359 22.218 10 34.62 10h20.813c12.402 0 13.614.36 18.96 5.246 4.989 4.527 13.97 16.384 14.326 16.887.428.575.357 1.437-.142 1.94l-10.834 9.845c-.286.288-.713.431-1.07.36-.427 0-.784-.216-.998-.575-3.064-3.953-6.557-8.264-7.127-8.767-.285-.216-.642-.36-.927-.36-.784 0-1.283.863-1.283 2.228V78.34c.072.79-.57 1.437-1.354 1.437zm-38.418-2.874h36.992V36.804c0-3.521 2.068-5.102 4.134-5.102 1.07 0 2.068.431 2.852 1.15.784.718 4.561 5.461 6.486 7.905l8.696-7.905c-2.353-3.018-9.266-11.857-13.187-15.45-4.49-4.168-4.847-4.456-17.035-4.456H34.62c-12.117 0-12.545.36-17.035 4.456-3.92 3.593-10.834 12.432-13.186 15.45l8.695 7.905c1.925-2.444 5.703-7.187 6.487-7.905.784-.719 1.782-1.15 2.85-1.15 2.068 0 4.135 1.58 4.135 5.102v40.099z"/><path d="M63.558 68.782H26.566v2.875h36.992v-2.875z"/></svg><svg viewBox="0 0 12 21" id="icon-slider-button-arrow" xmlns="http://www.w3.org/2000/svg"><path d="M2 2l8 8.5-7 9"/></svg><svg viewBox="0 0 90 90" id="icon-stock" xmlns="http://www.w3.org/2000/svg"><g clip-path="url(#ja)"><path d="M64.855 14.788H19.661V9.083c0-3.323 2.714-6.037 6.037-6.037h33.065c3.323 0 6.037 2.714 6.037 6.037v5.705h.055zM22.21 12.185h40.043V9.083c0-1.938-1.55-3.49-3.489-3.49H25.698a3.475 3.475 0 00-3.489 3.49v3.102z"/><path d="M67.126 28.523H17.834c-1.274 0-2.492-.665-3.212-1.717-.72-1.052-.831-2.437-.333-3.655l.056-.111 5.815-10.855h44.086l6.37 10.855a3.85 3.85 0 01-.278 3.71c-.664 1.108-1.883 1.773-3.212 1.773zm-50.566-4.32c-.166.388-.11.83.166 1.163.222.388.665.61 1.108.61h49.292c.443 0 .831-.222 1.108-.61.221-.387.277-.775.11-1.218l-5.538-9.416H21.711l-5.151 9.471z"/><path d="M22.265 28.468c-.166 0-.333-.056-.499-.111-.664-.277-.941-1.052-.664-1.717l5.981-13.68c.277-.665 1.052-.942 1.717-.665.665.277.942 1.053.665 1.717l-5.982 13.68c-.221.443-.72.776-1.218.776zm39.932 0c-.499 0-.942-.277-1.163-.776l-5.982-13.68c-.277-.664 0-1.384.665-1.717.665-.277 1.385 0 1.717.665l5.981 13.68c.277.665 0 1.385-.664 1.717-.222.055-.388.11-.554.11zm-29.963 0c-.11 0-.222 0-.332-.056-.665-.221-1.053-.886-.887-1.606l3.933-13.68c.221-.665.886-1.052 1.606-.886.664.221 1.052.886.886 1.606l-3.932 13.68c-.222.554-.72.942-1.274.942zm20.436.055c-.553 0-1.052-.388-1.218-.942l-3.932-13.68c-.222-.664.222-1.384.886-1.606.665-.221 1.385.222 1.606.886l3.933 13.68c.221.665-.222 1.385-.886 1.607-.111.055-.277.055-.388.055zm-10.245-.055c-.72 0-1.274-.554-1.274-1.274V13.459c0-.72.554-1.274 1.274-1.274s1.273.553 1.273 1.274v13.68c0 .72-.553 1.329-1.273 1.329z"/><path d="M58.32 87.452H26.585c-3.323 0-5.982-2.603-5.982-5.815V25.975h43.754v17.668c0 .72-.554 1.274-1.274 1.274s-1.274-.554-1.274-1.274v-15.12H23.151v53.114c0 1.772 1.55 3.212 3.434 3.212H58.32c1.883 0 3.434-1.44 3.434-3.212v-22.21c0-.72.554-1.273 1.274-1.273s1.274.554 1.274 1.274v22.209c.055 3.212-2.659 5.815-5.982 5.815z"/><path d="M62.972 74.659H21.988c-.72 0-1.274-.554-1.274-1.274s.554-1.274 1.274-1.274h40.984c.72 0 1.274.554 1.274 1.274s-.554 1.273-1.274 1.273zM51.73 47.354H32.731c-1.606 0-3.157-.61-4.264-1.772a5.948 5.948 0 01-1.773-4.265c0-3.323 2.714-6.037 6.037-6.037H51.73c1.606 0 3.157.61 4.265 1.772a5.948 5.948 0 011.772 4.265c0 .11 0 .277-.055.443-.166.72-.831 1.163-1.496.997-.664-.11-1.107-.775-.997-1.44 0-.997-.387-1.828-.996-2.492-.665-.665-1.551-.997-2.493-.997H32.732a3.475 3.475 0 00-3.489 3.489c0 .941.388 1.828 1.052 2.437a3.524 3.524 0 002.493 1.052h18.941a1.308 1.308 0 011.385.997c.166.665-.277 1.385-.942 1.55h-.443zm3.433 8.861h-25.09c-.72 0-1.273-.553-1.273-1.273 0-.72.554-1.274 1.274-1.274h25.09c.72 0 1.273.554 1.273 1.274s-.554 1.273-1.274 1.273zm-7.643 7.311H36.997c-.72 0-1.274-.554-1.274-1.274s.554-1.274 1.274-1.274H47.52c.72 0 1.274.554 1.274 1.274s-.554 1.274-1.274 1.274zm-5.04 18.056a2.16 2.16 0 100-4.32 2.16 2.16 0 000 4.32z"/><path d="M73.883 70.006a3.827 3.827 0 01-2.658-1.108L63.526 61.2l-1.772 4.099a2.47 2.47 0 01-2.437 1.495 2.501 2.501 0 01-2.27-1.717l-6.758-21.212a3.17 3.17 0 01.776-3.157 3.17 3.17 0 013.157-.776l21.267 6.813c.997.332 1.717 1.218 1.717 2.27.055 1.053-.554 1.994-1.495 2.437l-4.099 1.773 7.699 7.698c1.44 1.44 1.44 3.822 0 5.317l-2.714 2.714c-.83.72-1.772 1.052-2.714 1.052zM63.305 58.1c.498 0 .941.166 1.273.498l8.474 8.474c.443.443 1.219.443 1.662 0l2.714-2.714c.443-.443.443-1.218 0-1.662l-8.474-8.474a1.739 1.739 0 01-.499-1.606c.111-.609.499-1.052 1.053-1.329l4.984-2.16-21.101-6.757a.528.528 0 00-.554.111.463.463 0 00-.11.554l6.756 21.101 2.16-4.984c.222-.554.72-.942 1.33-1.053h.332z"/></g><defs><clipPath id="ja"><path d="M0 0h90v90H0z"/></clipPath></defs></svg><svg viewBox="0 0 90 90" id="icon-truck" xmlns="http://www.w3.org/2000/svg"><path d="M24.002 73.459c-5.089 0-9.317-4.172-9.317-9.35s4.157-9.35 9.317-9.35c5.088 0 9.316 4.172 9.316 9.35s-4.156 9.35-9.316 9.35zm0-15.823c-3.512 0-6.45 2.877-6.45 6.473 0 3.524 2.866 6.473 6.45 6.473 3.511 0 6.45-2.877 6.45-6.473a6.435 6.435 0 00-6.45-6.473zM72.52 73.459c-5.088 0-9.317-4.172-9.317-9.35s4.157-9.35 9.317-9.35c5.088 0 9.317 4.172 9.317 9.35s-4.157 9.35-9.317 9.35zm0-15.823c-3.512 0-6.45 2.877-6.45 6.473 0 3.524 2.867 6.473 6.45 6.473 3.512 0 6.45-2.877 6.45-6.473a6.435 6.435 0 00-6.45-6.473zm4.873-13.161H61.627a1.44 1.44 0 01-1.434-1.439V32.608a1.44 1.44 0 011.434-1.439h10.965c.43 0 .86.216 1.075.504l4.801 5.825c.215.288.359.576.359.935v4.675c0 .72-.645 1.367-1.434 1.367zM63.06 41.598h12.9v-2.661l-4.085-4.89H63.06v7.55zm-13.115 2.877H9.31a1.44 1.44 0 01-1.433-1.439 1.44 1.44 0 011.433-1.438h40.635a1.44 1.44 0 011.433 1.438 1.44 1.44 0 01-1.433 1.439z"/><path d="M24.002 66.554a2.441 2.441 0 002.436-2.445 2.44 2.44 0 00-2.436-2.445 2.441 2.441 0 00-2.437 2.445 2.441 2.441 0 002.437 2.445zm48.518 0a2.441 2.441 0 002.437-2.445 2.441 2.441 0 00-2.437-2.445 2.441 2.441 0 00-2.437 2.445 2.441 2.441 0 002.437 2.445z"/><path d="M53.528 63.102H31.455c-.645 0-1.147-.431-1.362-1.007-.86-2.66-3.296-4.459-6.091-4.459-2.795 0-5.232 1.798-6.092 4.46-.215.575-.717 1.006-1.362 1.006H5.583C3.577 63.102 2 61.52 2 59.506V17.361c0-2.014 1.577-3.596 3.583-3.596h47.945c2.007 0 3.584 1.582 3.584 3.596v42.145c0 1.942-1.649 3.596-3.584 3.596zm-21.07-2.877h21.07c.43 0 .717-.287.717-.719V17.361c0-.432-.287-.72-.717-.72H5.583c-.43 0-.716.288-.716.72v42.145c0 .432.286.72.716.72h10.034c1.433-3.309 4.73-5.466 8.385-5.466 3.655 0 6.951 2.157 8.456 5.465z"/><path d="M86.423 38.434l-8.6-11.004c-1.075-1.439-2.795-2.23-4.586-2.23H57.112v3.596c0-.431.286-.719.716-.719h15.409a3.02 3.02 0 012.365 1.15l8.528 11.004c.645.864 1.003 1.87 1.003 2.95v16.325c0 .432-.286.72-.716.72h-3.44c-1.505-3.309-4.802-5.466-8.457-5.466-3.655 0-6.952 2.157-8.457 5.465h-6.306c-.43 0-.717-.287-.717-.719 0 2.014-1.577 3.596-3.583 3.596h11.61c.645 0 1.146-.431 1.361-1.007.86-2.66 3.297-4.459 6.092-4.459 2.795 0 5.232 1.798 6.092 4.46.215.575.716 1.006 1.361 1.006h4.444c2.006 0 3.583-1.582 3.583-3.596V43.18c0-1.726-.573-3.452-1.577-4.746z"/></svg><svg viewBox="0 0 24 24" id="icon-user" xmlns="http://www.w3.org/2000/svg"><path d="M20 21v-2a4 4 0 00-4-4H8a4 4 0 00-4 4v2m8-10a4 4 0 100-8 4 4 0 000 8z"/></svg></svg>